<?xml version="1.0" encoding="utf-8"?>
<!-- Generator: Adobe Illustrator 26.0.1, SVG Export Plug-In . SVG Version: 6.00 Build 0)  -->
<svg version="1.1" id="Layer_1" xmlns="http://www.w3.org/2000/svg" xmlns:xlink="http://www.w3.org/1999/xlink" x="0px" y="0px"
	 viewBox="0 0 140 40" style="enable-background:new 0 0 140 40;" xml:space="preserve">
<style type="text/css">
	.st0{fill:#10151C;}
</style>
<g>
	<g>
		<path class="st0" d="M11.6,15.3c0-0.1,0-0.2,0-0.4c0-3.4,0-6.8,0-10.2c0-0.1,0-0.1,0-0.2c0-0.1,0.1-0.2,0.2-0.2c0.1,0,0.2,0,0.3,0
			c3.1,0,6.2,0,9.4,0c0.7,0,1.3,0.3,1.8,0.7c3.2,3.2,6.4,6.4,9.6,9.6c0.4,0.4,0.6,0.9,0.6,1.4c0,6.9,0,13.8,0,20.8c0,0,0,0,0,0
			c0,0.1-0.1,0.2-0.2,0.2H22.8c-0.1,0-0.2-0.1-0.2-0.2V15.3c-0.1,0-0.1,0-0.2,0C18.8,15.3,15.2,15.3,11.6,15.3L11.6,15.3z"/>
		<path class="st0" d="M12.4,10.7c0,0.2,0,0.5,0,0.7c0,8.3,0,16.7,0,25v0c0,0.3-0.2,0.5-0.4,0.5H1.3c-0.2,0-0.4-0.2-0.4-0.5
			c0,0,0,0,0,0c0-4.2,0-8.3,0-12.5c0-0.1,0-0.3,0.1-0.3c3.7-4.2,7.4-8.5,11.1-12.7C12.2,10.9,12.3,10.9,12.4,10.7
			C12.4,10.8,12.4,10.7,12.4,10.7z"/>
	</g>
	<g>
		<path class="st0" d="M42.1,20.6V7.1h3.1l4.3,6.8c0.2,0.4,0.4,0.7,0.7,1.1s0.5,0.9,0.7,1.4c0.2,0.5,0.5,1.1,0.7,1.7h-0.3
			c0-0.5-0.1-1-0.1-1.6c0-0.6-0.1-1.1-0.1-1.6c0-0.5,0-1,0-1.3V7.1h2.8v13.5h-3.1l-3.9-6.2c-0.3-0.5-0.5-0.9-0.8-1.4
			c-0.2-0.4-0.5-0.9-0.8-1.4c-0.3-0.5-0.6-1.2-0.9-1.9h0.4c0,0.7,0.1,1.3,0.1,1.9c0,0.6,0.1,1.1,0.1,1.6c0,0.5,0,0.9,0,1.2v6.2H42.1
			z"/>
		<path class="st0" d="M60.7,20.8c-1,0-1.9-0.2-2.6-0.7c-0.7-0.4-1.3-1-1.7-1.8s-0.6-1.7-0.6-2.7c0-1.1,0.2-2,0.6-2.7
			c0.4-0.8,1-1.4,1.7-1.8c0.7-0.4,1.6-0.7,2.6-0.7c1,0,1.9,0.2,2.6,0.7s1.3,1,1.7,1.8c0.4,0.8,0.6,1.7,0.6,2.7c0,1-0.2,1.9-0.6,2.7
			s-1,1.4-1.7,1.8C62.6,20.5,61.7,20.8,60.7,20.8z M60.7,18.6c0.5,0,0.9-0.1,1.2-0.4c0.3-0.3,0.6-0.6,0.7-1.1c0.2-0.5,0.2-1,0.2-1.6
			c0-0.6-0.1-1.1-0.2-1.6c-0.2-0.5-0.4-0.8-0.7-1.1c-0.3-0.3-0.7-0.4-1.2-0.4s-0.9,0.1-1.2,0.4c-0.3,0.3-0.6,0.6-0.7,1.1
			s-0.2,1-0.2,1.6c0,0.6,0.1,1.1,0.2,1.6c0.2,0.5,0.4,0.8,0.7,1.1C59.8,18.5,60.2,18.6,60.7,18.6z"/>
		<path class="st0" d="M67.6,20.6V10.4h2.6v1.8h0.1c0.2-0.6,0.5-1.1,0.9-1.4s0.9-0.5,1.5-0.5c0.1,0,0.3,0,0.5,0c0.2,0,0.3,0,0.4,0.1
			v2.4c-0.1,0-0.3-0.1-0.5-0.1c-0.2,0-0.4,0-0.7,0c-0.4,0-0.8,0.1-1.1,0.3c-0.3,0.2-0.6,0.4-0.8,0.7s-0.3,0.7-0.3,1.1v5.8H67.6z"/>
		<path class="st0" d="M80.4,10.4v2.1h-6v-2.1H80.4z M75.8,8h2.7v9.6c0,0.3,0.1,0.6,0.2,0.7c0.1,0.2,0.4,0.2,0.7,0.2
			c0.1,0,0.2,0,0.4,0c0.2,0,0.3-0.1,0.4-0.1l0.4,2c-0.3,0.1-0.6,0.2-0.9,0.2s-0.6,0.1-0.9,0.1c-1,0-1.8-0.2-2.3-0.7
			c-0.5-0.5-0.8-1.2-0.8-2.1V8z"/>
		<path class="st0" d="M84.9,14.7v5.9h-2.7V7.1h2.7V13h-0.2c0.3-0.8,0.7-1.5,1.2-2s1.2-0.7,2.1-0.7c0.7,0,1.3,0.2,1.8,0.5
			c0.5,0.3,0.9,0.7,1.2,1.3c0.3,0.6,0.4,1.3,0.4,2v6.4h-2.7v-6c0-0.6-0.2-1.1-0.5-1.5c-0.3-0.4-0.8-0.5-1.3-0.5
			c-0.4,0-0.7,0.1-1,0.2s-0.5,0.4-0.7,0.7S84.9,14.3,84.9,14.7z"/>
		<path class="st0" d="M93.7,20.6V10.4h2.5l0.1,2.5h-0.2c0.2-0.6,0.4-1.1,0.7-1.5c0.3-0.4,0.7-0.7,1.1-0.9c0.4-0.2,0.8-0.3,1.3-0.3
			c0.7,0,1.3,0.2,1.8,0.7c0.4,0.5,0.8,1.2,1,2.1h-0.3c0.2-0.6,0.4-1.2,0.7-1.6c0.3-0.4,0.7-0.7,1.2-0.9s1-0.3,1.5-0.3
			c0.6,0,1.2,0.1,1.7,0.4c0.5,0.3,0.9,0.7,1.1,1.2c0.3,0.5,0.4,1.1,0.4,1.9v6.8h-2.7v-6.3c0-0.6-0.2-1-0.5-1.3
			c-0.3-0.3-0.7-0.4-1.1-0.4c-0.3,0-0.6,0.1-0.9,0.2c-0.3,0.1-0.4,0.4-0.6,0.6c-0.1,0.3-0.2,0.6-0.2,0.9v6.2h-2.6v-6.4
			c0-0.5-0.1-0.9-0.4-1.2c-0.3-0.3-0.7-0.4-1.1-0.4c-0.3,0-0.6,0.1-0.9,0.2c-0.3,0.1-0.5,0.4-0.6,0.6c-0.1,0.3-0.2,0.6-0.2,1v6.1
			H93.7z"/>
		<path class="st0" d="M113.5,20.8c-0.6,0-1.2-0.1-1.7-0.3c-0.5-0.2-0.9-0.6-1.2-1s-0.4-1-0.4-1.7c0-0.6,0.1-1,0.3-1.4
			c0.2-0.4,0.5-0.7,0.9-0.9c0.4-0.2,0.8-0.4,1.2-0.5c0.5-0.1,0.9-0.2,1.4-0.3c0.6-0.1,1.1-0.1,1.4-0.2s0.6-0.1,0.8-0.2
			c0.2-0.1,0.2-0.3,0.2-0.5v0c0-0.3-0.1-0.5-0.2-0.7s-0.3-0.4-0.5-0.5c-0.2-0.1-0.5-0.2-0.9-0.2c-0.3,0-0.7,0.1-0.9,0.2
			c-0.3,0.1-0.5,0.2-0.6,0.4c-0.2,0.2-0.3,0.4-0.4,0.6l-2.5-0.4c0.2-0.6,0.5-1.1,0.9-1.5c0.4-0.4,0.9-0.7,1.5-0.9s1.3-0.3,2-0.3
			c0.5,0,1.1,0.1,1.6,0.2c0.5,0.1,1,0.3,1.4,0.6s0.7,0.6,1,1.1s0.4,1,0.4,1.6v6.8h-2.6v-1.4h-0.1c-0.2,0.3-0.4,0.6-0.7,0.8
			c-0.3,0.2-0.6,0.4-1,0.6C114.4,20.7,114,20.8,113.5,20.8z M114.3,18.9c0.4,0,0.8-0.1,1.1-0.3c0.3-0.2,0.6-0.4,0.8-0.7
			s0.3-0.6,0.3-1v-1.1c-0.1,0.1-0.2,0.1-0.4,0.2c-0.2,0-0.3,0.1-0.5,0.1c-0.2,0-0.4,0.1-0.6,0.1c-0.2,0-0.4,0.1-0.5,0.1
			c-0.3,0-0.6,0.1-0.9,0.2c-0.3,0.1-0.5,0.3-0.6,0.4s-0.2,0.4-0.2,0.7c0,0.3,0.1,0.5,0.2,0.7c0.1,0.2,0.3,0.3,0.5,0.4
			C113.7,18.8,114,18.9,114.3,18.9z"/>
		<path class="st0" d="M121.4,20.6V10.4h2.6v1.8h0.1c0.2-0.6,0.5-1.1,0.9-1.4s0.9-0.5,1.5-0.5c0.1,0,0.3,0,0.5,0
			c0.2,0,0.3,0,0.4,0.1v2.4c-0.1,0-0.3-0.1-0.5-0.1c-0.2,0-0.4,0-0.7,0c-0.4,0-0.8,0.1-1.1,0.3c-0.3,0.2-0.6,0.4-0.8,0.7
			c-0.2,0.3-0.3,0.7-0.3,1.1v5.8H121.4z"/>
		<path class="st0" d="M129.3,20.6V7.1h2.7v13.5H129.3z M131.7,17.6v-3.3h0.4l3.3-3.9h3.1l-4.4,5.1h-0.6L131.7,17.6z M135.6,20.6
			l-3-4.4l1.8-1.9l4.4,6.4H135.6z"/>
	</g>
	<g>
		<path class="st0" d="M41.2,33.3l2.8-8h1.5l2.9,8h-1.3l-1.6-4.5c-0.1-0.4-0.3-0.8-0.4-1.3c-0.1-0.5-0.3-1.1-0.5-1.8h0.2
			c-0.2,0.7-0.3,1.3-0.5,1.8c-0.1,0.5-0.3,0.9-0.4,1.3l-1.5,4.5H41.2z M42.7,31.2v-1h4.2v1H42.7z"/>
		<path class="st0" d="M52.6,33.4c-0.5,0-0.9-0.1-1.3-0.4s-0.7-0.6-0.9-1.1s-0.3-1-0.3-1.7c0-0.7,0.1-1.2,0.3-1.7
			c0.2-0.5,0.5-0.8,0.9-1.1s0.8-0.4,1.3-0.4c0.4,0,0.7,0.1,0.9,0.2c0.2,0.1,0.4,0.3,0.5,0.4c0.1,0.2,0.2,0.3,0.3,0.4h0.1v-3h1.2v8
			h-1.1v-0.9h-0.1c-0.1,0.1-0.2,0.3-0.3,0.4c-0.1,0.2-0.3,0.3-0.5,0.4C53.2,33.3,52.9,33.4,52.6,33.4z M52.8,32.4
			c0.3,0,0.6-0.1,0.9-0.3c0.2-0.2,0.4-0.4,0.5-0.7c0.1-0.3,0.2-0.7,0.2-1.1c0-0.4-0.1-0.8-0.2-1.1s-0.3-0.6-0.5-0.7
			c-0.2-0.2-0.5-0.3-0.9-0.3c-0.3,0-0.6,0.1-0.9,0.3c-0.2,0.2-0.4,0.4-0.5,0.7c-0.1,0.3-0.2,0.7-0.2,1.1c0,0.4,0.1,0.8,0.2,1.1
			s0.3,0.6,0.5,0.8C52.2,32.3,52.5,32.4,52.8,32.4z"/>
		<path class="st0" d="M59.7,33.3l-2.3-6h1.3l1.2,3.4c0.1,0.4,0.2,0.8,0.3,1.1s0.2,0.8,0.3,1.1h-0.4c0.1-0.4,0.2-0.7,0.3-1.1
			s0.2-0.8,0.3-1.1l1.2-3.4h1.3l-2.3,6H59.7z"/>
		<path class="st0" d="M65.7,26.4c-0.2,0-0.4-0.1-0.5-0.2C65.1,26,65,25.9,65,25.7c0-0.2,0.1-0.4,0.2-0.5c0.1-0.1,0.3-0.2,0.5-0.2
			s0.4,0.1,0.5,0.2s0.2,0.3,0.2,0.5c0,0.2-0.1,0.4-0.2,0.5C66.1,26.3,65.9,26.4,65.7,26.4z M65.1,33.3v-6h1.2v6H65.1z"/>
		<path class="st0" d="M70.9,33.4c-0.4,0-0.8-0.1-1.2-0.2c-0.3-0.1-0.6-0.3-0.8-0.6c-0.2-0.2-0.4-0.5-0.4-0.9l1.1-0.2
			c0.1,0.3,0.2,0.5,0.5,0.7s0.5,0.2,0.9,0.2c0.4,0,0.7-0.1,0.9-0.2c0.2-0.2,0.3-0.4,0.3-0.6c0-0.2-0.1-0.4-0.2-0.5
			c-0.1-0.1-0.4-0.2-0.6-0.3l-1-0.2c-0.6-0.1-1-0.3-1.2-0.6s-0.4-0.6-0.4-1.1c0-0.4,0.1-0.7,0.3-0.9s0.5-0.5,0.8-0.6
			c0.3-0.1,0.7-0.2,1.2-0.2c0.4,0,0.8,0.1,1.1,0.2c0.3,0.1,0.6,0.3,0.7,0.5c0.2,0.2,0.3,0.5,0.4,0.8l-1.1,0.2
			c-0.1-0.2-0.2-0.4-0.4-0.6c-0.2-0.2-0.5-0.2-0.8-0.2c-0.3,0-0.6,0.1-0.8,0.2c-0.2,0.1-0.3,0.3-0.3,0.6c0,0.2,0.1,0.4,0.2,0.5
			c0.1,0.1,0.4,0.2,0.7,0.3l1,0.2c0.6,0.1,1,0.3,1.2,0.6c0.3,0.3,0.4,0.6,0.4,1c0,0.4-0.1,0.7-0.3,1s-0.5,0.5-0.9,0.7
			C71.8,33.3,71.4,33.4,70.9,33.4z"/>
		<path class="st0" d="M78,33.4c-0.6,0-1.1-0.1-1.5-0.4s-0.7-0.6-1-1.1c-0.2-0.5-0.3-1-0.3-1.6c0-0.6,0.1-1.2,0.3-1.6
			c0.2-0.5,0.6-0.8,1-1.1s0.9-0.4,1.5-0.4c0.6,0,1.1,0.1,1.5,0.4s0.7,0.6,1,1.1c0.2,0.5,0.3,1,0.3,1.6c0,0.6-0.1,1.2-0.3,1.6
			c-0.2,0.5-0.6,0.8-1,1.1S78.6,33.4,78,33.4z M78,32.4c0.4,0,0.7-0.1,0.9-0.3s0.4-0.4,0.5-0.8c0.1-0.3,0.2-0.7,0.2-1
			c0-0.4-0.1-0.7-0.2-1.1s-0.3-0.6-0.5-0.8s-0.5-0.3-0.9-0.3c-0.4,0-0.7,0.1-0.9,0.3s-0.4,0.4-0.5,0.8s-0.2,0.7-0.2,1.1
			c0,0.4,0.1,0.7,0.2,1c0.1,0.3,0.3,0.6,0.5,0.8S77.7,32.4,78,32.4z"/>
		<path class="st0" d="M83,33.3v-6h1.1v1h0.1c0.1-0.3,0.3-0.6,0.6-0.8c0.3-0.2,0.6-0.3,0.9-0.3c0.1,0,0.2,0,0.3,0c0.1,0,0.2,0,0.2,0
			v1.1c0,0-0.1,0-0.2,0c-0.1,0-0.2,0-0.4,0c-0.3,0-0.5,0.1-0.7,0.2c-0.2,0.1-0.4,0.3-0.5,0.5s-0.2,0.4-0.2,0.7v3.6H83z"/>
		<path class="st0" d="M88.1,35.4l0.3-1l0.1,0c0.2,0.1,0.4,0.1,0.6,0c0.2,0,0.3-0.1,0.4-0.2s0.2-0.3,0.3-0.6l0.1-0.4l-2.3-6h1.3
			l1.2,3.4c0.1,0.4,0.2,0.8,0.3,1.1s0.2,0.8,0.3,1.1h-0.4c0.1-0.4,0.2-0.7,0.3-1.1s0.2-0.8,0.3-1.1l1.2-3.4h1.3l-2.6,6.8
			c-0.1,0.3-0.3,0.6-0.4,0.8c-0.2,0.2-0.4,0.4-0.6,0.5c-0.2,0.1-0.5,0.2-0.8,0.2c-0.2,0-0.4,0-0.5,0C88.3,35.5,88.2,35.5,88.1,35.4z
			"/>
	</g>
</g>
</svg>
