<?xml version="1.0" encoding="utf-8"?>
<!-- Generator: Adobe Illustrator 26.0.1, SVG Export Plug-In . SVG Version: 6.00 Build 0)  -->
<svg version="1.1" id="Layer_1" xmlns="http://www.w3.org/2000/svg" xmlns:xlink="http://www.w3.org/1999/xlink" x="0px" y="0px"
	 viewBox="0 0 24 24" style="enable-background:new 0 0 24 24;" xml:space="preserve">
<style type="text/css">
	.st0{fill:#FBFBF9;}
	.st1{fill-rule:evenodd;clip-rule:evenodd;fill:#FBFBF9;}
</style>
<g>
	<path class="st0" d="M14,11h-4v2h4V11z"/>
	<path class="st1" d="M7,5V4c0-1.1,0.9-2,2-2h6c1.1,0,2,0.9,2,2v1h3c1.7,0,3,1.3,3,3v10c0,1.7-1.3,3-3,3H4c-1.7,0-3-1.3-3-3V8
		c0-1.7,1.3-3,3-3H7z M9,4h6v1H9V4z M4,7C3.4,7,3,7.4,3,8v6h18V8c0-0.6-0.4-1-1-1H4z M3,18v-2h18v2c0,0.6-0.4,1-1,1H4
		C3.4,19,3,18.6,3,18"/>
</g>
</svg>
