<?xml version="1.0" encoding="utf-8"?>
<!-- Generator: Adobe Illustrator 26.0.1, SVG Export Plug-In . SVG Version: 6.00 Build 0)  -->
<svg version="1.1" id="Layer_1" xmlns="http://www.w3.org/2000/svg" xmlns:xlink="http://www.w3.org/1999/xlink" x="0px" y="0px"
	 viewBox="0 0 24 24" style="enable-background:new 0 0 24 24;" xml:space="preserve">
<style type="text/css">
	.st0{fill:#FBFBF9;}
</style>
<path class="st0" d="M16.7,2h4.6l0.1,0l0.1,0l0.1,0c0.1,0,0.2,0.1,0.2,0.2l0,0l0,0.1l0.1,0.1l0,0.1l0,0.1l0,0.1l0,0.1v4.5
	C22,7.7,21.7,8,21.2,8c-0.4,0-0.7-0.3-0.7-0.6l0-0.1V4.6L14.1,11c-0.3,0.3-0.7,0.3-1,0.1L13,11l-3-2.9l-5.7,5.7
	c-0.3,0.3-0.8,0.3-1.1,0c-0.3-0.3-0.3-0.7-0.1-1l0.1-0.1l6.2-6.2c0.3-0.3,0.7-0.3,1-0.1l0.1,0.1l3,2.9l5.9-5.9h-2.7
	c-0.4,0-0.7-0.3-0.7-0.6l0-0.1c0-0.4,0.3-0.7,0.6-0.7L16.7,2z M3.8,17c0.4,0,0.8,0.3,0.8,0.8v3.5c0,0.4-0.3,0.8-0.8,0.8
	S3,21.7,3,21.2v-3.5C3,17.3,3.3,17,3.8,17 M9.5,13.8c0-0.4-0.3-0.8-0.8-0.8S8,13.3,8,13.8v7.5C8,21.7,8.3,22,8.8,22s0.8-0.3,0.8-0.8
	V13.8z M13.8,15c0.4,0,0.8,0.3,0.8,0.8v5.5c0,0.4-0.3,0.8-0.8,0.8S13,21.7,13,21.2v-5.5C13,15.3,13.3,15,13.8,15 M19.5,10.8
	c0-0.4-0.3-0.8-0.8-0.8S18,10.3,18,10.8v10.5c0,0.4,0.3,0.8,0.8,0.8s0.8-0.3,0.8-0.8V10.8z"/>
</svg>
