<?xml version="1.0" encoding="utf-8"?>
<!-- Generator: Adobe Illustrator 26.0.1, SVG Export Plug-In . SVG Version: 6.00 Build 0)  -->
<svg version="1.1" id="Layer_1" xmlns="http://www.w3.org/2000/svg" xmlns:xlink="http://www.w3.org/1999/xlink" x="0px" y="0px"
	 viewBox="0 0 24 24" style="enable-background:new 0 0 24 24;" xml:space="preserve">
<style type="text/css">
	.st0{fill:none;}
	.st1{fill:none;stroke:#FBFBF9;stroke-width:2;}
</style>
<g>
	<path class="st0" d="M12,2c4.4,0,8,3.6,8,8c0,6.5-8,12-8,12s-8-5.5-8-12C4,5.6,7.6,2,12,2 M12,7c-1.7,0-3,1.3-3,3s1.3,3,3,3
		s3-1.3,3-3S13.7,7,12,7"/>
	<path class="st1" d="M20,10c0,6.5-8,12-8,12s-8-5.5-8-12c0-4.4,3.6-8,8-8S20,5.6,20,10z"/>
	<path class="st1" d="M15,10c0,1.7-1.3,3-3,3s-3-1.3-3-3s1.3-3,3-3S15,8.3,15,10z"/>
</g>
</svg>
