<?xml version="1.0" encoding="utf-8"?>
<!-- Generator: Adobe Illustrator 26.0.1, SVG Export Plug-In . SVG Version: 6.00 Build 0)  -->
<svg version="1.1" id="Layer_1" xmlns="http://www.w3.org/2000/svg" xmlns:xlink="http://www.w3.org/1999/xlink" x="0px" y="0px"
	 viewBox="0 0 24 24" style="enable-background:new 0 0 24 24;" xml:space="preserve">
<style type="text/css">
	.st0{fill:none;stroke:#FBFBF9;stroke-width:1.5;stroke-linejoin:round;}
</style>
<path class="st0" d="M15.3,20.7h3c1.2,0,2.2-1,2.2-2.2V12c0-1-0.4-1.9-1.1-2.5l-5.9-5.2c-0.8-0.7-2.1-0.7-2.9,0L4.6,9.5
	c-0.7,0.6-1.1,1.5-1.1,2.5v6.5c0,1.2,1,2.2,2.2,2.2H9 M15.3,20.7v-6.6c0-0.9-0.7-1.6-1.6-1.6h-3c-0.9,0-1.6,0.7-1.6,1.6v6.6
	 M15.3,20.7H9"/>
</svg>
