<?xml version="1.0" encoding="utf-8"?>
<!-- Generator: Adobe Illustrator 26.0.1, SVG Export Plug-In . SVG Version: 6.00 Build 0)  -->
<svg version="1.1" id="Layer_1" xmlns="http://www.w3.org/2000/svg" xmlns:xlink="http://www.w3.org/1999/xlink" x="0px" y="0px"
	 viewBox="0 0 821 985" style="enable-background:new 0 0 821 985;" xml:space="preserve">
<style type="text/css">
	.st0{fill:none;stroke:url(#SVGID_1_);}
</style>
<linearGradient id="SVGID_1_" gradientUnits="userSpaceOnUse" x1="314.7335" y1="986" x2="314.7335" y2="-28" gradientTransform="matrix(1 0 0 -1 0 986)">
	<stop  offset="0" style="stop-color:#B89B5E;stop-opacity:0.1"/>
	<stop  offset="1" style="stop-color:#FFFFFF"/>
</linearGradient>
<path class="st0" d="M820,505.7L820,505.7v505.7c0,11-4.4,21.6-12.2,29.5c-7.8,7.8-18.4,12.2-29.4,12.2h-927.2
	c-11,0-21.6-4.4-29.4-12.2c-7.8-7.8-12.2-18.4-12.2-29.5V505.7v0c0-11,2.1-21.9,6.3-32.1c4.2-10.2,10.4-19.4,18.2-27.2l0,0L255.5,25
	c15.7-15.7,37-24.5,59.2-24.5S358.2,9.3,374,25l421.4,421.4l0,0c7.8,7.8,14,17,18.2,27.2C817.9,483.8,820,494.7,820,505.7z"/>
</svg>
