<?xml version="1.0" encoding="utf-8"?>
<!-- Generator: Adobe Illustrator 26.0.1, SVG Export Plug-In . SVG Version: 6.00 Build 0)  -->
<svg version="1.1" id="Layer_1" xmlns="http://www.w3.org/2000/svg" xmlns:xlink="http://www.w3.org/1999/xlink" x="0px" y="0px"
	 viewBox="0 0 821 985" style="enable-background:new 0 0 821 985;" xml:space="preserve">
<style type="text/css">
	.st0{fill:none;stroke:url(#SVGID_1_);stroke-width:0.8116;}
</style>
<linearGradient id="SVGID_1_" gradientUnits="userSpaceOnUse" x1="410.0002" y1="-569.9057" x2="410.0002" y2="253.0156" gradientTransform="matrix(1 0 0 1 0 600)">
	<stop  offset="0" style="stop-color:#B89B5E;stop-opacity:0.1"/>
	<stop  offset="1" style="stop-color:#FFFFFF"/>
</linearGradient>
<path class="st0" d="M820,440.5L820,440.5v410.4c0,8.9-3.6,17.5-9.9,23.9c-6.3,6.3-14.9,9.9-23.9,9.9H33.8c-8.9,0-17.5-3.6-23.9-9.9
	C3.6,868.5,0,859.9,0,850.9l0-410.4l0,0c0-8.9,1.7-17.8,5.1-26.1s8.4-15.7,14.8-22.1l0,0l342-342c12.7-12.7,30-19.9,48-19.9
	s35.3,7.1,48.1,19.9l342,342l0,0c6.3,6.3,11.4,13.8,14.8,22.1C818.3,422.7,820,431.6,820,440.5z"/>
</svg>
