<?xml version="1.0" encoding="utf-8"?>
<!-- Generator: Adobe Illustrator 26.0.1, SVG Export Plug-In . SVG Version: 6.00 Build 0)  -->
<svg version="1.1" id="Layer_1" xmlns="http://www.w3.org/2000/svg" xmlns:xlink="http://www.w3.org/1999/xlink" x="0px" y="0px"
	 viewBox="0 0 24 24" style="enable-background:new 0 0 24 24;" xml:space="preserve">
<style type="text/css">
	.st0{fill-rule:evenodd;clip-rule:evenodd;fill:#FBFBF9;}
</style>
<g>
	<path class="st0" d="M10.5,9.5c0.5-0.4,1.1-0.7,1.7-0.9c0.6-0.2,1.3-0.3,1.9-0.2c0.2,0,0.3-0.1,0.4-0.2c0,0,0,0,0,0
		c0-0.2-0.1-0.4-0.2-0.4c0,0,0,0,0,0c-0.7-0.2-1.5-0.2-2.3,0c-0.8,0.1-1.5,0.4-2.1,0.8C9.4,8.9,9,9.4,8.8,10c-0.1,0.5,0.1,1,0.5,1.3
		c0.4,0.5,1.1,0.8,1.7,0.8c0.6,0,1.3-0.1,1.9-0.3c0.5-0.2,1-0.2,1.5-0.2c0.8,0.1,1.7,0.6,2.6,0.8c0.4,0.1,0.9,0.1,1.4-0.1
		c0.2-0.1,0.3-0.3,0.3-0.5c-0.1-0.2-0.3-0.3-0.5-0.3c-0.3,0.1-0.6,0.1-0.9,0c-0.9-0.2-1.7-0.8-2.5-1c-0.7-0.1-1.3-0.1-2,0.1
		c-0.5,0.1-1,0.2-1.5,0.2c-0.3,0-0.7-0.2-0.9-0.4c-0.1-0.1-0.2-0.2-0.2-0.3C10.1,9.9,10.3,9.7,10.5,9.5"/>
	<path class="st0" d="M22.2,8.2c-1.1-0.4-2-1-3.1-1.5C18.5,6.3,17.8,6,17,5.8c-1.3-0.3-2.6-0.4-3.9-0.2c0.2-0.7,0.3-1.4,0.4-2.1
		c0.1-0.6,0-1.3-0.1-1.9C13.2,0.4,12.6,0,12,0c-0.8,0.1-1.4,0.5-1.8,1.2L9.5,2.4C9,3.5,8.6,4.7,8.2,5.9H8.1C7.2,6.4,6.5,7.2,5.9,8
		C5.6,8.4,5.3,8.8,5.1,9.3c-0.2,0.5-0.4,1-0.6,1.5c-0.2,0.8-0.1,1.6,0.3,2.2c0.4,0.6,1.2,0.7,1.8,0.3c-0.3,1.2-0.5,2.5-0.5,3.7
		c0,0.2,0,0.3,0.1,0.5c0,0.2,0.1,0.3,0.1,0.5c0.2,0.4,0.3,0.7,0.6,1C7,19.2,7.7,19.4,9,18.3c0.1-0.1,0.2-0.2,0.4-0.4
		c0.1-0.1,0.2-0.3,0.3-0.4c0.2-0.4,0.3-0.7,0.5-1.1c0.4,0.3,0.8,0.6,1.2,0.7c0.3,0.1,0.5,0.2,0.8,0.2c0.4,0,0.9,0,1.3-0.1
		c0.1,0,0.2-0.1,0.2-0.1c0.7,0.5,1.6,0.7,2.4,0.8c0.6,0,1.2-0.1,1.8-0.2c0.8-0.2,1.6-0.4,2.4-0.5c0.2,0,0.4-0.2,0.4-0.4
		c0-0.2-0.2-0.4-0.4-0.4c-1-0.1-2,0-3,0.1l-1.1,0.1h-0.7c-0.3,0-0.7,0-1-0.1c0.1-0.1,0.2-0.3,0.3-0.4c0.3-0.6,0.1-1.3-0.5-1.6h-0.1
		c0.5-0.3,0.8-0.8,0.9-1.3c0.1-0.5-0.2-1-0.6-1.3c-0.2-0.1-0.4-0.1-0.5,0.1c-0.1,0.2-0.1,0.4,0.1,0.5c0.1,0.1,0.2,0.3,0.1,0.5
		c-0.1,0.3-0.4,0.5-0.7,0.6c-0.2,0-0.5,0-0.7,0L12,13.3c-0.3,0-0.6-0.1-0.9-0.2v-0.6c0.1-0.2,0-0.4-0.1-0.5s-0.4,0-0.5,0.1
		c0,0,0,0.1,0,0.1c-0.1,0.2-0.7,1.4-0.8,1.6c0,0.2-0.1,0.3-0.1,0.5c0,0.1,0,0.1,0,0.2c-0.3-0.1-0.5-0.2-0.7-0.3
		c-0.1-0.1-0.2-0.1-0.3-0.1c-0.1,0-0.2,0-0.3-0.1c-0.3,0-0.6,0.1-0.9,0.1H7.2C7.8,12.2,8.3,10,9,7.8c0.4-1.7,1-3.3,1.7-4.8l0.6-1.1
		c0.2-0.4,0.5-0.7,0.8-0.7s0.4,0.3,0.5,0.7c0.1,0.5,0.2,1.1,0.2,1.6c0,0.9-0.1,1.7-0.3,2.5c0,0.2,0.1,0.4,0.3,0.5
		c0.2,0,0.3-0.1,0.4-0.2c0,0,0.1,0,0.1,0c0.9,0,1.8,0.1,2.7,0.4c0.3,0.1,0.6,0.2,1,0.3c0.5,0.2,1,0.4,1.5,0.5c1.2,0.5,2.5,1,3.8,1.3
		c0.2,0.1,0.4,0,0.5-0.2C22.5,8.4,22.4,8.2,22.2,8.2 M6.6,12c-0.1,0.1-0.3,0.3-0.4,0.3c-0.1,0-0.2,0-0.3,0c-0.1,0-0.1-0.1-0.1-0.2
		c-0.1-0.4-0.1-0.7,0-1.1c0.1-0.5,0.3-1,0.6-1.5c0.2-0.5,0.5-1,0.8-1.5c0.2-0.4,0.5-0.7,0.8-1c0,0.2-0.1,0.3-0.2,0.5
		c-0.3,1.3-0.6,2.7-0.8,4C6.8,11.7,6.7,11.9,6.6,12 M12,14.6c0.5,0.1,1.1,0.1,1.6,0c-0.1,0.1,0,0.3,0.1,0.4c0.1,0.2,0.1,0.4,0,0.6
		c-0.2,0.2-0.4,0.3-0.6,0.4C12.8,16,12.5,16,12.1,16c-0.3,0-0.7,0-1-0.1c-0.3-0.1-0.6-0.2-0.9-0.3c0.1-0.2,0.3-0.5,0.4-0.7
		c0.1-0.2,0.1-0.3,0.2-0.5c0-0.1,0-0.2,0.1-0.3C11.2,14.4,11.6,14.5,12,14.6 M7.1,15c0.2,0.2,0.5,0.3,0.8,0.5
		c0.1,0.1,0.2,0.1,0.4,0.1c0.1,0,0.2,0,0.4,0c0.3,0,0.6,0,0.9-0.1v0.2c0,0.1,0,0.2,0,0.2c-0.3,0.3-0.6,0.5-0.9,0.8
		C8.3,17,8.2,17.2,8,17.5c-0.2,0.3-0.3,0.5-0.5,0.8c0-0.2,0-0.5-0.1-0.7c0-0.2-0.1-0.5-0.1-0.7c-0.1-0.4-0.3-0.8-0.6-1.1
		c0,0,0.1-0.1,0.1-0.1C6.9,15.4,7,15.2,7.1,15C7.1,15,7.1,15,7.1,15"/>
	<path class="st0" d="M10.9,21.4c-1.1-0.4-2.3-0.5-3.5-0.3l-1.2,0.3l-1.3,0.2c-0.3,0-0.5,0-0.8-0.1c-0.2-0.1-0.5-0.1-0.7-0.2
		c-0.4-0.2-0.7-0.5-0.7-0.8c0-0.4,0.1-0.8,0.5-1C3.5,19.2,4,19,4.5,18.8c0.5-0.2,1-0.2,1.6-0.2c0.2,0,0.3-0.2,0.3-0.4
		c0-0.1-0.1-0.3-0.3-0.3c-0.6-0.1-1.2,0-1.8,0.1c-0.6,0.1-1.2,0.4-1.7,0.8c-0.7,0.4-1,1.1-1,1.9c0.1,0.8,0.6,1.4,1.3,1.8
		c0.3,0.2,0.6,0.3,1,0.4c0.4,0.1,0.7,0.1,1.1,0.1c0.3,0,0.5,0,0.8-0.1c0.2,0,0.5-0.1,0.8-0.2l1.2-0.4c0.9-0.3,1.9-0.3,2.8,0
		c0.2,0.1,0.3,0.1,0.4,0.3s0,0.5-0.3,0.8c-0.1,0.2-0.1,0.4,0.1,0.5c0.1,0.1,0.2,0.1,0.3,0.1c0.1,0,0.2-0.1,0.3-0.1
		c0.4-0.4,0.6-1,0.5-1.5C11.5,21.9,11.2,21.6,10.9,21.4"/>
</g>
</svg>
