<?xml version="1.0" encoding="utf-8"?>
<!-- Generator: Adobe Illustrator 26.0.1, SVG Export Plug-In . SVG Version: 6.00 Build 0)  -->
<svg version="1.1" id="Layer_1" xmlns="http://www.w3.org/2000/svg" xmlns:xlink="http://www.w3.org/1999/xlink" x="0px" y="0px"
	 viewBox="0 0 512 512" style="enable-background:new 0 0 512 512;" xml:space="preserve">
<style type="text/css">
	.st0{fill:#FBFBF9;}
</style>
<path class="st0" d="M340.5,22.1c-17.8,7.1-49,20.6-59.1,35.6c-1.8,7.2-2,13.5-1.4,20.3c10.6,2.5,36.6,6.2,44.8,0.6
	C337.4,61.1,339.6,41.9,340.5,22.1 M153.3,93.2c4.6,11,16.7,33.8,26.7,38.1c14.2,0.6,25.7-4,37.8-10c-0.3-6.5-1.2-12.8-4.3-18.9
	C193.5,92.2,174.2,91.9,153.3,93.2 M266.3,93c3.3,13.4,4.7,28.3,4.9,43.8c-9.8-7.1-21.8-12.3-35.4-16.7c0.6,12.3,1.8,11.2-8.1,16.3
	c20.1,6.2,34.1,13.6,42.8,24.1c-1.7,26.3-6.2,52.8-11,74.9c-29,0.9-66.3,5-98.7,11.6l31.6,15.8l-62.8-8.1
	c-15.6,2.6-37.9,11.1-39.9,21.5c4.6,25.7,46.1,37.2,66.2,42.4c39.9,10.3,89.4,14.7,123.3,13.8c16-0.5,36.9-3.3,58.3-7.8l-36.8-37.2
	l60.8,31.6c23.8-7.1,48.9-13.9,69.2-28c3.3-2.9,11.9-8.3,10.3-13.4c-2-6-8.5-12.5-19.8-18.3s-26.6-10.4-43.7-14
	c-25.8-5.4-55.4-8.2-81.4-9.4l-9.3,46.7c-24.3,22.2-61,9.4-65.9-9.7l17.8-2.5c8.8,9.7,23.6,8,31.7,2.3c2.7-18,8.3-37.8,11.4-54.4
	c19.5-3.2,34.9-12.7,47.4-25.7c-6.8-2-8.8-8.9-10.9-14.9c-9.1,10-20.8,18.8-33.3,21.8c5-32.9,7.2-69.6,0.9-101.9
	C279.2,96.5,272.7,94.9,266.3,93L266.3,93z M332.7,156.8c-1.6,16.3,6.4,20.5,21.1,22.7c6.6-9.1,8.8-18.1,10.3-28.2
	C354.5,152.6,339.5,148.6,332.7,156.8 M332.7,156.8C332.7,156.8,332.6,156.8,332.7,156.8C332.6,156.9,332.7,156.8,332.7,156.8
	 M439.8,306.4c-21.4,13-40.5,20.2-62.1,26.6l-10.6,45.2l-18.6-37.6c-24.7,5.6-49.3,9.2-68.9,9.7c-35.9,1-86.1-3.4-128.3-14.3
	c-21.5-7.1-42.9-12.8-59.4-25.2l-13.3,97.8L20.8,469c28.2-1.9,55.7,11.2,79.5,5.6c10.2-2.5,24.3-7.6,44.8-17l48.2-39.6l-25.6,41.7
	c47.1,21.4,91.6,12,133.5-5.7l-13-70.7l40.9,65.3c44.8,36.8,98.1,49.7,151.1,36.2c4.4-1.1,8-2.4,11-3.5l-33.8-49l-22.2,23.9
	l12.3-64.8L439.8,306.4z"/>
</svg>
